<?xml version="1.0" encoding="UTF-8"?>
<svg xmlns="http://www.w3.org/2000/svg" xmlns:xlink="http://www.w3.org/1999/xlink" width="870.24pt" height="623.63pt" viewBox="0 0 870.24 623.63" version="1.1">
<g id="surface1">
<path style=" stroke:none;fill-rule:nonzero;fill:rgb(15.299988%,28.999329%,41.598511%);fill-opacity:1;" d="M 72.253906 323.492188 C 71.675781 322.761719 71.316406 321.851563 71.316406 320.847656 C 71.316406 319.796875 71.714844 318.84375 72.347656 318.097656 L 103.449219 281.886719 L 82.324219 275.636719 L 59.664063 303.007813 C 59.664063 303.007813 59.648438 303.03125 59.636719 303.042969 C 59.164063 303.597656 58.46875 303.960938 57.683594 303.960938 C 56.3125 303.960938 55.207031 302.894531 55.113281 301.546875 L 55.074219 300.511719 L 56.761719 279.074219 L 32.199219 280.824219 L 24.890625 374.242188 L 49.410156 372.546875 L 51.726563 343.066406 C 51.898438 341.84375 52.933594 340.898438 54.207031 340.898438 C 55.082031 340.898438 55.851563 341.34375 56.300781 342.023438 L 56.308594 342.015625 L 77.652344 372.546875 L 102.136719 363.511719 L 72.246094 323.5 L 72.253906 323.492188 "/>
<path style=" stroke:none;fill-rule:nonzero;fill:rgb(15.299988%,28.999329%,41.598511%);fill-opacity:1;" d="M 144.742188 341.742188 C 144.742188 341.742188 143.242188 345.597656 138.917969 348.335938 C 138.917969 348.335938 136.175781 350.261719 132.453125 350.21875 C 134.3125 349.886719 128.257813 351.207031 127.785156 345.9375 C 127.785156 345.9375 127.058594 342.984375 130.355469 340.5 C 130.355469 340.5 133.609375 337.972656 139.519531 336.902344 C 139.519531 336.902344 144.011719 335.960938 144.914063 337.375 C 144.914063 337.375 146.15625 338.53125 144.742188 341.742188 Z M 165.757813 304.503906 C 161.835938 298.003906 153.699219 294.511719 142.828125 295.128906 C 135.746094 295.527344 125.574219 297.074219 115.570313 303.007813 L 114.136719 322.761719 C 114.136719 322.761719 119.792969 319.324219 125.957031 316.492188 C 130.273438 314.511719 135.648438 313.371094 138.792969 313.511719 C 140.679688 313.597656 145.199219 314.046875 145.191406 317.109375 C 145.1875 318.855469 143.953125 320.382813 141.199219 320.449219 C 133.511719 320.636719 124.574219 323.074219 119.261719 325.886719 C 115.503906 327.878906 109.761719 331.199219 106.824219 337.949219 C 105.085938 341.945313 103.886719 348.449219 105.246094 354.53125 C 106.382813 359.605469 110.949219 366.074219 118.167969 368.082031 C 121.511719 369.011719 127.195313 369.265625 132.324219 368.386719 C 137.074219 367.574219 141.886719 366.324219 149.839844 365.640625 C 153.953125 365.285156 166.304688 364.457031 166.304688 364.457031 C 166.304688 364.457031 168.269531 339.042969 169.0625 330.582031 C 169.679688 324.039063 170.699219 312.699219 165.757813 304.503906 "/>
<path style=" stroke:none;fill-rule:nonzero;fill:rgb(15.299988%,28.999329%,41.598511%);fill-opacity:1;" d="M 223.761719 290.554688 C 219.21875 290.554688 213.300781 291.847656 213.300781 291.847656 C 208.011719 293.136719 200.300781 293.722656 200.300781 293.722656 C 193.613281 294.3125 181.09375 294.804688 181.09375 294.804688 L 175.511719 363.886719 L 199.011719 362.257813 C 199.351563 357.726563 200.671875 340.183594 201.175781 334.972656 C 201.175781 334.972656 201.675781 323.304688 202.425781 319.804688 C 202.425781 319.804688 204.925781 309.386719 215.09375 309.222656 C 215.09375 309.222656 222.34375 308.386719 221.59375 318.222656 L 218.15625 360.929688 L 241.59375 359.304688 L 244.925781 316.722656 C 247.800781 288.429688 223.761719 290.554688 223.761719 290.554688 "/>
<path style=" stroke:none;fill-rule:nonzero;fill:rgb(15.299988%,28.999329%,41.598511%);fill-opacity:1;" d="M 296.761719 324.261719 C 293.5625 338.480469 287.175781 341.078125 282.480469 341.078125 C 277.167969 341.078125 274.644531 332.292969 274.855469 325.449219 C 275.339844 309.660156 281.136719 302.921875 289.261719 303.011719 C 297.382813 303.105469 298.714844 315.578125 296.761719 324.261719 Z M 315.425781 285.886719 C 311.09375 286.472656 294.511719 286.136719 294.511719 286.136719 C 282.925781 285.722656 277.09375 287.804688 277.09375 287.804688 C 269.511719 290.054688 264.425781 295.136719 264.425781 295.136719 C 252.09375 307.472656 251.261719 318.304688 251.261719 318.304688 C 248.425781 333.554688 252.925781 342.304688 252.925781 342.304688 C 257.175781 352.972656 265.59375 356.222656 265.59375 356.222656 C 277.84375 360.972656 288.011719 356.222656 288.011719 356.222656 C 291.84375 354.136719 293.011719 355.972656 293.011719 355.972656 C 294.59375 357.472656 292.175781 361.222656 292.175781 361.222656 C 289.09375 367.136719 284.011719 368.636719 284.011719 368.636719 C 265.425781 373.804688 255.175781 364.304688 255.175781 364.304688 L 248.511719 381.722656 C 259.84375 388.886719 275.925781 387.722656 275.925781 387.722656 C 293.84375 387.636719 303.261719 378.886719 303.261719 378.886719 C 314.675781 368.972656 316.761719 357.636719 316.761719 357.636719 C 318.425781 351.304688 319.011719 342.722656 319.011719 342.722656 C 319.59375 334.972656 323.425781 285.136719 323.425781 285.136719 L 315.425781 285.886719 "/>
<path style=" stroke:none;fill-rule:nonzero;fill:rgb(15.299988%,28.999329%,41.598511%);fill-opacity:1;" d="M 447.070313 313.078125 C 445.5625 325.03125 439.996094 331.402344 433.015625 331.464844 C 427.320313 331.515625 423.945313 323.953125 424.632813 314.953125 C 425.742188 300.425781 430.480469 291.8125 438.710938 291.8125 C 447.722656 291.8125 448.121094 304.714844 447.070313 313.078125 Z M 373.261719 318.199219 C 371.753906 330.15625 366.1875 336.527344 359.207031 336.589844 C 353.511719 336.636719 350.136719 329.074219 350.824219 320.074219 C 351.933594 305.546875 356.671875 296.933594 364.902344 296.933594 C 373.914063 296.933594 374.3125 309.839844 373.261719 318.199219 Z M 441.175781 275.472656 C 422.566406 275.472656 407.378906 287.25 402.226563 303.109375 L 402.21875 303.105469 C 401.929688 304.234375 400.914063 305.078125 399.691406 305.078125 C 398.53125 305.078125 397.558594 304.316406 397.21875 303.269531 C 397.210938 303.238281 397.203125 303.210938 397.195313 303.175781 C 397.160156 303.050781 397.125 302.921875 397.109375 302.785156 L 397.097656 302.792969 C 393.886719 289.515625 382.445313 280.804688 367.34375 280.804688 C 345.714844 280.804688 328.695313 296.710938 326.695313 316.445313 C 324.511719 338.011719 337.636719 352.761719 355.34375 352.804688 C 375.367188 352.851563 390.300781 342.132813 395.839844 324.140625 L 395.84375 324.140625 C 396.25 323.074219 397.277344 322.308594 398.488281 322.308594 C 399.855469 322.308594 400.996094 323.277344 401.261719 324.566406 L 401.269531 324.5625 C 404.5 338.578125 415.460938 347.441406 429.175781 347.472656 C 452.183594 347.527344 468.472656 333.375 471.511719 310.304688 C 474.171875 290.082031 460.738281 275.472656 441.175781 275.472656 "/>
<path style=" stroke:none;fill-rule:nonzero;fill:rgb(22.399902%,38.398743%,57.598877%);fill-opacity:1;" d="M 672.089844 207.726563 C 672.089844 207.726563 625.261719 158.636719 540.753906 134.347656 C 460.535156 111.285156 383.457031 119.917969 345.011719 129.636719 C 287.011719 144.304688 235.675781 166.804688 189.511719 207.726563 C 173.253906 222.863281 163.199219 234.199219 158.292969 240.136719 C 155.222656 243.851563 153.714844 246.335938 153.761719 248.136719 C 153.851563 251.765625 156.742188 252.523438 158.136719 252.636719 C 159.65625 252.765625 160.917969 252.457031 163.011719 251.386719 C 169.011719 248.324219 195.761719 237.761719 206.011719 234.199219 C 221.589844 228.785156 251.324219 218.949219 274.449219 213.074219 C 297.574219 207.199219 355.136719 195.261719 395.011719 192.136719 C 434.886719 189.011719 462.886719 188.011719 493.261719 189.386719 C 523.636719 190.761719 578.511719 195.011719 629.011719 206.886719 C 646.011719 210.761719 648.761719 211.324219 660.261719 214.511719 C 660.261719 214.511719 667.949219 217.261719 670.511719 216.574219 C 672.476563 216.046875 674.449219 214.136719 673.949219 211.574219 C 673.585938 209.71875 672.089844 207.726563 672.089844 207.726563 "/>
<path style=" stroke:none;fill-rule:nonzero;fill:rgb(22.399902%,38.398743%,57.598877%);fill-opacity:1;" d="M 166.640625 415.90625 C 166.640625 415.90625 213.46875 464.996094 297.976563 489.285156 C 378.195313 512.347656 455.273438 503.714844 493.71875 493.996094 C 551.71875 479.328125 603.054688 456.828125 649.21875 415.90625 C 665.476563 400.769531 675.53125 389.433594 680.4375 383.496094 C 683.507813 379.78125 685.015625 377.296875 684.96875 375.496094 C 684.878906 371.867188 681.988281 371.113281 680.59375 370.996094 C 679.074219 370.867188 677.8125 371.175781 675.71875 372.246094 C 669.71875 375.308594 642.96875 385.871094 632.71875 389.433594 C 617.140625 394.847656 587.40625 404.683594 564.28125 410.558594 C 541.15625 416.433594 483.59375 428.371094 443.722656 431.496094 C 403.84375 434.621094 375.84375 435.621094 345.46875 434.246094 C 315.09375 432.871094 260.21875 428.621094 209.71875 416.746094 C 192.71875 412.871094 189.96875 412.308594 178.46875 409.121094 C 178.46875 409.121094 170.78125 406.371094 168.21875 407.058594 C 166.253906 407.585938 164.496094 409.460938 164.78125 412.058594 C 165.0625 414.574219 166.640625 415.90625 166.640625 415.90625 "/>
<path style=" stroke:none;fill-rule:nonzero;fill:rgb(22.399902%,38.398743%,57.598877%);fill-opacity:1;" d="M 487.695313 367.191406 L 488.902344 354.917969 C 492.976563 354.414063 495.777344 352.832031 497.511719 350.355469 C 501.230469 345.046875 501.875 336.824219 502.234375 332.132813 C 503.886719 310.449219 508.980469 245.589844 508.980469 245.589844 L 529.308594 244.324219 L 523.050781 324.429688 C 522.511719 331.429688 522.261719 337.011719 520.871094 342.035156 C 513.949219 369.199219 487.695313 367.191406 487.695313 367.191406 "/>
<path style=" stroke:none;fill-rule:nonzero;fill:rgb(22.399902%,38.398743%,57.598877%);fill-opacity:1;" d="M 582.074219 267.277344 C 581.554688 274.316406 579.222656 305.871094 578.925781 307.722656 C 578.925781 307.722656 577.402344 324.019531 564.09375 324.054688 C 564.09375 324.054688 553.949219 324.886719 554.84375 311.636719 L 558.023438 268.898438 L 538.699219 270.199219 C 538.699219 270.199219 535.636719 311.511719 535.261719 316.949219 C 535.261719 316.949219 534.761719 330.136719 541.011719 335.011719 C 541.011719 335.011719 547.386719 341.574219 562.199219 338.136719 C 562.449219 338.136719 569.949219 336.011719 577.886719 335.761719 L 596.074219 334.730469 L 601.425781 265.972656 L 582.074219 267.277344 "/>
<path style=" stroke:none;fill-rule:nonzero;fill:rgb(22.399902%,38.398743%,57.598877%);fill-opacity:1;" d="M 694.46875 257.886719 C 688.65625 258 680.96875 259.554688 672.71875 266.097656 C 671.78125 266.839844 671.351563 267.023438 670.121094 267.058594 C 669.121094 267.089844 668.449219 266.777344 667.96875 266.261719 C 664.96875 263.054688 660.949219 260.804688 653.011719 260.804688 C 646.578125 260.804688 634.105469 263.425781 627.636719 264.136719 C 623.546875 264.589844 611.277344 265.214844 611.277344 265.214844 L 606.042969 333.886719 L 625.285156 332.566406 L 628.730469 290.460938 L 628.738281 290.460938 C 629.917969 280.699219 636.175781 276.308594 643.742188 276.34375 C 650.121094 276.378906 651.972656 281.425781 651.933594 288.472656 C 651.933594 288.574219 649.480469 320.707031 648.695313 330.960938 L 668.109375 329.625 L 671.5625 287.375 L 671.570313 287.375 C 672.753906 277.617188 679.007813 273.222656 686.574219 273.261719 C 692.957031 273.296875 694.808594 278.339844 694.769531 285.386719 C 694.769531 285.492188 692.289063 317.921875 691.519531 328.015625 L 710.902344 326.683594 L 714.21875 283.054688 C 714.21875 283.054688 718.261719 257.429688 694.46875 257.886719 "/>
<path style=" stroke:none;fill-rule:nonzero;fill:rgb(22.399902%,38.398743%,57.598877%);fill-opacity:1;" d="M 773.195313 287.753906 C 770.429688 307.585938 761.449219 310.886719 755.800781 311.066406 C 748.773438 311.289063 742.441406 303.535156 744.054688 288.5625 C 745.988281 270.625 755.496094 265.539063 762.527344 265.695313 C 770.597656 265.875 774.808594 276.1875 773.195313 287.753906 Z M 793.261719 274.574219 C 792.542969 271.792969 792.054688 267.191406 786.574219 260.480469 C 784.167969 257.710938 780.273438 254.9375 775.824219 253.671875 C 774.519531 253.285156 770.144531 252.585938 767.355469 252.855469 C 767.355469 252.855469 760.605469 253.296875 755.667969 254.261719 C 755.667969 254.261719 749.386719 255.449219 743.792969 256.136719 C 743.792969 256.136719 735.355469 257.136719 726.214844 257.171875 L 718.277344 359.105469 L 737.574219 358.027344 L 740.617188 318.433594 C 742.363281 319.800781 746.761719 322.988281 751.105469 324.136719 C 754.800781 325.117188 762.335938 325.199219 766.386719 323.671875 C 772.804688 321.242188 776.273438 318.605469 780.386719 314.574219 C 783.3125 311.710938 787.667969 305.480469 789.511719 301.324219 C 789.511719 301.324219 792.492188 294.910156 793.082031 290.097656 C 793.082031 290.097656 794.851563 281.980469 793.261719 274.574219 "/>
<path style=" stroke:none;fill-rule:nonzero;fill:rgb(22.399902%,38.398743%,57.598877%);fill-opacity:1;" d="M 845.34375 253.804688 C 844.550781 254.929688 838.511719 264.136719 838.511719 264.136719 C 838.511719 264.136719 833.675781 260.136719 828.59375 259.972656 C 823.511719 259.804688 819.925781 263.472656 819.84375 266.886719 C 819.761719 270.304688 822.511719 272.222656 824.59375 273.722656 C 826.675781 275.222656 835.34375 281.386719 837.761719 283.972656 C 840.175781 286.554688 844.679688 293.054688 842.761719 301.386719 C 840.84375 309.722656 832.59375 316.222656 824.179688 319.136719 C 824.179688 319.136719 810.429688 324.222656 797.761719 316.886719 C 795.261719 315.386719 794.011719 314.636719 794.011719 314.636719 L 800.511719 303.054688 C 804.21875 305.761719 811.261719 311.472656 819.511719 307.554688 C 824.777344 305.054688 824.25 299.164063 823.136719 296.886719 C 821.261719 293.054688 812.882813 288.664063 810.59375 287.054688 C 808.34375 285.472656 800.886719 279.136719 800.675781 272.179688 C 800.4375 264.128906 803.800781 257.074219 813.925781 251.847656 C 821.511719 247.929688 837.050781 246.222656 845.34375 253.804688 "/>
</g>
</svg>
